{"asset":{"version":"2.0","generator":"Original Stock Car Damage Asset Builder"},"scene":0,"scenes":[{"nodes":[0]}],"nodes":[{"name":"WebStockCar_03","mesh":0}],"meshes":[{"name":"WebStockCar_03","weights":[0,0,0,0],"primitives":[{"attributes":{"POSITION":0},"indices":1,"material":0,"mode":4,"targets":[{"POSITION":2},{"POSITION":3},{"POSITION":4},{"POSITION":5}]},{"attributes":{"POSITION":6},"indices":7,"material":3,"mode":4,"targets":[{"POSITION":8},{"POSITION":9},{"POSITION":10},{"POSITION":11}]},{"attributes":{"POSITION":12},"indices":13,"material":2,"mode":4,"targets":[{"POSITION":14},{"POSITION":15},{"POSITION":16},{"POSITION":17}]},{"attributes":{"POSITION":18},"indices":19,"material":6,"mode":4,"targets":[{"POSITION":20},{"POSITION":21},{"POSITION":22},{"POSITION":23}]},{"attributes":{"POSITION":24},"indices":25,"material":7,"mode":4,"targets":[{"POSITION":26},{"POSITION":27},{"POSITION":28},{"POSITION":29}]},{"attributes":{"POSITION":30},"indices":31,"material":1,"mode":4,"targets":[{"POSITION":32},{"POSITION":33},{"POSITION":34},{"POSITION":35}]},{"attributes":{"POSITION":36},"indices":37,"material":4,"mode":4,"targets":[{"POSITION":38},{"POSITION":39},{"POSITION":40},{"POSITION":41}]},{"attributes":{"POSITION":42},"indices":43,"material":5,"mode":4,"targets":[{"POSITION":44},{"POSITION":45},{"POSITION":46},{"POSITION":47}]},{"attributes":{"POSITION":48},"indices":49,"material":8,"mode":4,"targets":[{"POSITION":50},{"POSITION":51},{"POSITION":52},{"POSITION":53}]}],"extras":{"targetNames":["FrontImpact","LeftSideImpact","RightSideImpact","RearImpact"]}}],"materials":[{"name":"paint","pbrMetallicRoughness":{"baseColorFactor":[0.7255,0.1843,0.2392,1],"metallicFactor":0.12,"roughnessFactor":0.52}},{"name":"accent","pbrMetallicRoughness":{"baseColorFactor":[0.098,0.098,0.098,1],"metallicFactor":0.12,"roughnessFactor":0.52}},{"name":"number","pbrMetallicRoughness":{"baseColorFactor":[0.9569,0.9569,0.9451,1],"metallicFactor":0.12,"roughnessFactor":0.52}},{"name":"glass","pbrMetallicRoughness":{"baseColorFactor":[0.045,0.095,0.125,0.62],"metallicFactor":0.12,"roughnessFactor":0.12},"alphaMode":"BLEND","doubleSided":true},{"name":"tire","pbrMetallicRoughness":{"baseColorFactor":[0.025,0.025,0.028,1],"metallicFactor":0.12,"roughnessFactor":0.52}},{"name":"wheel","pbrMetallicRoughness":{"baseColorFactor":[0.2,0.22,0.24,1],"metallicFactor":0.75,"roughnessFactor":0.52}},{"name":"grille","pbrMetallicRoughness":{"baseColorFactor":[0.015,0.017,0.02,1],"metallicFactor":0.12,"roughnessFactor":0.52}},{"name":"light","pbrMetallicRoughness":{"baseColorFactor":[0.9,0.93,0.95,1],"metallicFactor":0.12,"roughnessFactor":0.52}},{"name":"brake","pbrMetallicRoughness":{"baseColorFactor":[0.7,0.22,0.12,1],"metallicFactor":0.12,"roughnessFactor":0.52}}],"buffers":[{"byteLength":215760,"uri":"data:application/octet-stream;base64,"}],"bufferViews":[{"buffer":0,"byteOffset":0,"byteLength":9216,"target":34962},{"buffer":0,"byteOffset":9216,"byteLength":1536,"target":34963},{"buffer":0,"byteOffset":10752,"byteLength":9216,"target":34962},{"buffer":0,"byteOffset":19968,"byteLength":9216,"target":34962},{"buffer":0,"byteOffset":29184,"byteLength":9216,"target":34962},{"buffer":0,"byteOffset":38400,"byteLength":9216,"target":34962},{"buffer":0,"byteOffset":47616,"byteLength":2592,"target":34962},{"buffer":0,"byteOffset":50208,"byteLength":432,"target":34963},{"buffer":0,"byteOffset":50640,"byteLength":2592,"target":34962},{"buffer":0,"byteOffset":53232,"byteLength":2592,"target":34962},{"buffer":0,"byteOffset":55824,"byteLength":2592,"target":34962},{"buffer":0,"byteOffset":58416,"byteLength":2592,"target":34962},{"buffer":0,"byteOffset":61008,"byteLength":4320,"target":34962},{"buffer":0,"byteOffset":65328,"byteLength":720,"target":34963},{"buffer":0,"byteOffset":66048,"byteLength":4320,"target":34962},{"buffer":0,"byteOffset":70368,"byteLength":4320,"target":34962},{"buffer":0,"byteOffset":74688,"byteLength":4320,"target":34962},{"buffer":0,"byteOffset":79008,"byteLength":4320,"target":34962},{"buffer":0,"byteOffset":83328,"byteLength":1728,"target":34962},{"buffer":0,"byteOffset":85056,"byteLength":288,"target":34963},{"buffer":0,"byteOffset":85344,"byteLength":1728,"target":34962},{"buffer":0,"byteOffset":87072,"byteLength":1728,"target":34962},{"buffer":0,"byteOffset":88800,"byteLength":1728,"target":34962},{"buffer":0,"byteOffset":90528,"byteLength":1728,"target":34962},{"buffer":0,"byteOffset":92256,"byteLength":864,"target":34962},{"buffer":0,"byteOffset":93120,"byteLength":144,"target":34963},{"buffer":0,"byteOffset":93264,"byteLength":864,"target":34962},{"buffer":0,"byteOffset":94128,"byteLength":864,"target":34962},{"buffer":0,"byteOffset":94992,"byteLength":864,"target":34962},{"buffer":0,"byteOffset":95856,"byteLength":864,"target":34962},{"buffer":0,"byteOffset":96720,"byteLength":2592,"target":34962},{"buffer":0,"byteOffset":99312,"byteLength":432,"target":34963},{"buffer":0,"byteOffset":99744,"byteLength":2592,"target":34962},{"buffer":0,"byteOffset":102336,"byteLength":2592,"target":34962},{"buffer":0,"byteOffset":104928,"byteLength":2592,"target":34962},{"buffer":0,"byteOffset":107520,"byteLength":2592,"target":34962},{"buffer":0,"byteOffset":110112,"byteLength":6912,"target":34962},{"buffer":0,"byteOffset":117024,"byteLength":1152,"target":34963},{"buffer":0,"byteOffset":118176,"byteLength":6912,"target":34962},{"buffer":0,"byteOffset":125088,"byteLength":6912,"target":34962},{"buffer":0,"byteOffset":132000,"byteLength":6912,"target":34962},{"buffer":0,"byteOffset":138912,"byteLength":6912,"target":34962},{"buffer":0,"byteOffset":145824,"byteLength":7776,"target":34962},{"buffer":0,"byteOffset":153600,"byteLength":1296,"target":34963},{"buffer":0,"byteOffset":154896,"byteLength":7776,"target":34962},{"buffer":0,"byteOffset":162672,"byteLength":7776,"target":34962},{"buffer":0,"byteOffset":170448,"byteLength":7776,"target":34962},{"buffer":0,"byteOffset":178224,"byteLength":7776,"target":34962},{"buffer":0,"byteOffset":186000,"byteLength":5760,"target":34962},{"buffer":0,"byteOffset":191760,"byteLength":960,"target":34963},{"buffer":0,"byteOffset":192720,"byteLength":5760,"target":34962},{"buffer":0,"byteOffset":198480,"byteLength":5760,"target":34962},{"buffer":0,"byteOffset":204240,"byteLength":5760,"target":34962},{"buffer":0,"byteOffset":210000,"byteLength":5760,"target":34962}],"accessors":[{"bufferView":0,"componentType":5126,"count":768,"type":"VEC3","min":[-1.034999966621399,0.23000000417232513,-2.549999952316284],"max":[1.034999966621399,1.3799999952316284,2.549999952316284]},{"bufferView":1,"componentType":5123,"count":768,"type":"SCALAR"},{"bufferView":2,"componentType":5126,"count":768,"type":"VEC3"},{"bufferView":3,"componentType":5126,"count":768,"type":"VEC3"},{"bufferView":4,"componentType":5126,"count":768,"type":"VEC3"},{"bufferView":5,"componentType":5126,"count":768,"type":"VEC3"},{"bufferView":6,"componentType":5126,"count":216,"type":"VEC3","min":[-0.7850000262260437,0.9399999976158142,-1.0199999809265137],"max":[0.7850000262260437,1.2999999523162842,0.8899999856948853]},{"bufferView":7,"componentType":5123,"count":216,"type":"SCALAR"},{"bufferView":8,"componentType":5126,"count":216,"type":"VEC3"},{"bufferView":9,"componentType":5126,"count":216,"type":"VEC3"},{"bufferView":10,"componentType":5126,"count":216,"type":"VEC3"},{"bufferView":11,"componentType":5126,"count":216,"type":"VEC3"},{"bufferView":12,"componentType":5126,"count":360,"type":"VEC3","min":[-1.0180000066757202,0.7200000286102295,-0.6100000143051147],"max":[1.0180000066757202,1.4140000343322754,0.9100000262260437]},{"bufferView":13,"componentType":5123,"count":360,"type":"SCALAR"},{"bufferView":14,"componentType":5126,"count":360,"type":"VEC3"},{"bufferView":15,"componentType":5126,"count":360,"type":"VEC3"},{"bufferView":16,"componentType":5126,"count":360,"type":"VEC3"},{"bufferView":17,"componentType":5126,"count":360,"type":"VEC3"},{"bufferView":18,"componentType":5126,"count":144,"type":"VEC3","min":[-1.024999976158142,0.18000000715255737,-2.119999885559082],"max":[1.024999976158142,0.6600000262260437,2.6600000858306885]},{"bufferView":19,"componentType":5123,"count":144,"type":"SCALAR"},{"bufferView":20,"componentType":5126,"count":144,"type":"VEC3"},{"bufferView":21,"componentType":5126,"count":144,"type":"VEC3"},{"bufferView":22,"componentType":5126,"count":144,"type":"VEC3"},{"bufferView":23,"componentType":5126,"count":144,"type":"VEC3"},{"bufferView":24,"componentType":5126,"count":72,"type":"VEC3","min":[-0.9700000286102295,0.5899999737739563,2.490000009536743],"max":[0.9700000286102295,0.7300000190734863,2.569999933242798]},{"bufferView":25,"componentType":5123,"count":72,"type":"SCALAR"},{"bufferView":26,"componentType":5126,"count":72,"type":"VEC3"},{"bufferView":27,"componentType":5126,"count":72,"type":"VEC3"},{"bufferView":28,"componentType":5126,"count":72,"type":"VEC3"},{"bufferView":29,"componentType":5126,"count":72,"type":"VEC3"},{"bufferView":30,"componentType":5126,"count":216,"type":"VEC3","min":[-1.1200000047683716,0.1599999964237213,-2.5799999237060547],"max":[1.1200000047683716,1.399999976158142,2.680000066757202]},{"bufferView":31,"componentType":5123,"count":216,"type":"SCALAR"},{"bufferView":32,"componentType":5126,"count":216,"type":"VEC3"},{"bufferView":33,"componentType":5126,"count":216,"type":"VEC3"},{"bufferView":34,"componentType":5126,"count":216,"type":"VEC3"},{"bufferView":35,"componentType":5126,"count":216,"type":"VEC3"},{"bufferView":36,"componentType":5126,"count":576,"type":"VEC3","min":[-1.1449999809265137,0.07000000029802322,-1.9700000286102295],"max":[1.1449999809265137,0.8700000047683716,1.9700000286102295]},{"bufferView":37,"componentType":5123,"count":576,"type":"SCALAR"},{"bufferView":38,"componentType":5126,"count":576,"type":"VEC3"},{"bufferView":39,"componentType":5126,"count":576,"type":"VEC3"},{"bufferView":40,"componentType":5126,"count":576,"type":"VEC3"},{"bufferView":41,"componentType":5126,"count":576,"type":"VEC3"},{"bufferView":42,"componentType":5126,"count":648,"type":"VEC3","min":[-1.159999966621399,0.2150000035762787,-1.8250000476837158],"max":[1.159999966621399,0.7250000238418579,1.8250000476837158]},{"bufferView":43,"componentType":5123,"count":648,"type":"SCALAR"},{"bufferView":44,"componentType":5126,"count":648,"type":"VEC3"},{"bufferView":45,"componentType":5126,"count":648,"type":"VEC3"},{"bufferView":46,"componentType":5126,"count":648,"type":"VEC3"},{"bufferView":47,"componentType":5126,"count":648,"type":"VEC3"},{"bufferView":48,"componentType":5126,"count":480,"type":"VEC3","min":[-1.1729999780654907,0.35587000846862793,-1.690000057220459],"max":[1.1729999780654907,0.5841299891471863,1.690000057220459]},{"bufferView":49,"componentType":5123,"count":480,"type":"SCALAR"},{"bufferView":50,"componentType":5126,"count":480,"type":"VEC3"},{"bufferView":51,"componentType":5126,"count":480,"type":"VEC3"},{"bufferView":52,"componentType":5126,"count":480,"type":"VEC3"},{"bufferView":53,"componentType":5126,"count":480,"type":"VEC3"}]}