# Original game asset — generated locally
# Silver Bolt / race number 10
mtllib stock_car_10.mtl
o StockCar_10
v -0.78000 0.30000 -2.48000
v 0.78000 0.30000 -2.48000
v 0.78000 0.70000 -2.48000
v -0.78000 0.70000 -2.48000
v -0.84000 0.70000 -2.48000
v 0.84000 0.70000 -2.48000
v -0.89000 0.27000 -2.18000
v 0.89000 0.27000 -2.18000
v 0.89000 0.90000 -2.18000
v -0.89000 0.90000 -2.18000
v -0.93000 0.90000 -2.18000
v 0.93000 0.90000 -2.18000
v -0.96000 0.24000 -1.20000
v 0.96000 0.24000 -1.20000
v 0.96000 1.00000 -1.20000
v -0.96000 1.00000 -1.20000
v -0.96000 1.00000 -1.20000
v 0.96000 1.00000 -1.20000
v -0.96000 0.24000 0.72000
v 0.96000 0.24000 0.72000
v 0.96000 1.02000 0.72000
v -0.96000 1.02000 0.72000
v -0.90000 1.02000 0.72000
v 0.90000 1.02000 0.72000
v -0.91000 0.23000 1.75000
v 0.91000 0.23000 1.75000
v 0.91000 0.90000 1.75000
v -0.91000 0.90000 1.75000
v -0.76000 0.90000 1.75000
v 0.76000 0.90000 1.75000
v -0.80000 0.25000 2.35000
v 0.80000 0.25000 2.35000
v 0.80000 0.73000 2.35000
v -0.80000 0.73000 2.35000
v -0.67000 0.73000 2.35000
v 0.67000 0.73000 2.35000
v -0.65000 0.31000 2.55000
v 0.65000 0.31000 2.55000
v 0.65000 0.59000 2.55000
v -0.65000 0.59000 2.55000
v -0.55000 0.59000 2.55000
v 0.55000 0.59000 2.55000
v -0.75000 0.91000 -1.03000
v 0.75000 0.91000 -1.03000
v 0.75000 1.08000 -1.03000
v -0.75000 1.08000 -1.03000
v -0.75000 1.08000 -1.03000
v 0.75000 1.08000 -1.03000
v -0.73000 0.98000 -0.68000
v 0.73000 0.98000 -0.68000
v 0.73000 1.36000 -0.68000
v -0.73000 1.36000 -0.68000
v -0.69000 1.36000 -0.68000
v 0.69000 1.36000 -0.68000
v -0.71000 0.99000 0.50000
v 0.71000 0.99000 0.50000
v 0.71000 1.38000 0.50000
v -0.71000 1.38000 0.50000
v -0.68000 1.38000 0.50000
v 0.68000 1.38000 0.50000
v -0.72000 0.90000 0.91000
v 0.72000 0.90000 0.91000
v 0.72000 1.08000 0.91000
v -0.72000 1.08000 0.91000
v -0.72000 1.08000 0.91000
v 0.72000 1.08000 0.91000
v -0.66500 1.08500 0.50000
v 0.66500 1.08500 0.50000
v 0.66500 1.09500 0.50000
v -0.66500 1.09500 0.50000
v -0.66500 1.08500 0.89000
v 0.66500 1.08500 0.89000
v 0.66500 1.09500 0.89000
v -0.66500 1.09500 0.89000
v -0.68000 1.09000 -1.02000
v 0.68000 1.09000 -1.02000
v 0.68000 1.10000 -1.02000
v -0.68000 1.10000 -1.02000
v -0.68000 1.09000 -0.68000
v 0.68000 1.09000 -0.68000
v 0.68000 1.10000 -0.68000
v -0.68000 1.10000 -0.68000
v -0.75500 0.98000 -0.64000
v -0.76800 0.98000 -0.64000
v -0.76800 1.30000 -0.64000
v -0.75500 1.30000 -0.64000
v -0.75500 0.98000 0.53000
v -0.76800 0.98000 0.53000
v -0.76800 1.30000 0.53000
v -0.75500 1.30000 0.53000
v -0.77000 0.94000 0.54000
v -0.78500 0.94000 0.54000
v -0.78500 1.08000 0.54000
v -0.77000 1.08000 0.54000
v -0.77000 0.94000 0.89000
v -0.78500 0.94000 0.89000
v -0.78500 1.08000 0.89000
v -0.77000 1.08000 0.89000
v 0.75500 0.98000 -0.64000
v 0.76800 0.98000 -0.64000
v 0.76800 1.30000 -0.64000
v 0.75500 1.30000 -0.64000
v 0.75500 0.98000 0.53000
v 0.76800 0.98000 0.53000
v 0.76800 1.30000 0.53000
v 0.75500 1.30000 0.53000
v 0.77000 0.94000 0.54000
v 0.78500 0.94000 0.54000
v 0.78500 1.08000 0.54000
v 0.77000 1.08000 0.54000
v 0.77000 0.94000 0.89000
v 0.78500 0.94000 0.89000
v 0.78500 1.08000 0.89000
v 0.77000 1.08000 0.89000
v -0.39800 1.07500 0.48000
v -0.36200 1.07500 0.48000
v -0.36200 1.11000 0.48000
v -0.39800 1.11000 0.48000
v -0.39800 1.07500 0.91000
v -0.36200 1.07500 0.91000
v -0.36200 1.11000 0.91000
v -0.39800 1.11000 0.91000
v -0.01800 1.07500 0.48000
v 0.01800 1.07500 0.48000
v 0.01800 1.11000 0.48000
v -0.01800 1.11000 0.48000
v -0.01800 1.07500 0.91000
v 0.01800 1.07500 0.91000
v 0.01800 1.11000 0.91000
v -0.01800 1.11000 0.91000
v 0.36200 1.07500 0.48000
v 0.39800 1.07500 0.48000
v 0.39800 1.11000 0.48000
v 0.36200 1.11000 0.48000
v 0.36200 1.07500 0.91000
v 0.39800 1.07500 0.91000
v 0.39800 1.11000 0.91000
v 0.36200 1.11000 0.91000
v -0.59000 0.43000 2.54000
v 0.59000 0.43000 2.54000
v 0.59000 0.66000 2.54000
v -0.59000 0.66000 2.54000
v -0.59000 0.43000 2.57500
v 0.59000 0.43000 2.57500
v 0.59000 0.66000 2.57500
v -0.59000 0.66000 2.57500
v -0.99000 0.18000 2.47000
v 0.99000 0.18000 2.47000
v 0.99000 0.29000 2.47000
v -0.99000 0.29000 2.47000
v -0.99000 0.18000 2.66000
v 0.99000 0.18000 2.66000
v 0.99000 0.29000 2.66000
v -0.99000 0.29000 2.66000
v -0.97000 0.59000 2.49000
v -0.68000 0.59000 2.49000
v -0.68000 0.73000 2.49000
v -0.97000 0.73000 2.49000
v -0.97000 0.59000 2.57000
v -0.68000 0.59000 2.57000
v -0.68000 0.73000 2.57000
v -0.97000 0.73000 2.57000
v 0.68000 0.59000 2.49000
v 0.97000 0.59000 2.49000
v 0.97000 0.73000 2.49000
v 0.68000 0.73000 2.49000
v 0.68000 0.59000 2.57000
v 0.97000 0.59000 2.57000
v 0.97000 0.73000 2.57000
v 0.68000 0.73000 2.57000
v -1.12000 0.16000 2.30000
v 1.12000 0.16000 2.30000
v 1.12000 0.22000 2.30000
v -1.12000 0.22000 2.30000
v -1.12000 0.16000 2.68000
v 1.12000 0.16000 2.68000
v 1.12000 0.22000 2.68000
v -1.12000 0.22000 2.68000
v -0.96000 1.05000 -2.58000
v 0.96000 1.05000 -2.58000
v 0.96000 1.14000 -2.58000
v -0.96000 1.14000 -2.58000
v -0.96000 1.05000 -2.48000
v 0.96000 1.05000 -2.48000
v 0.96000 1.14000 -2.48000
v -0.96000 1.14000 -2.48000
v -0.96000 0.86000 -2.55000
v 0.96000 0.86000 -2.55000
v 0.96000 0.91000 -2.55000
v -0.96000 0.91000 -2.55000
v -0.96000 0.86000 -2.45000
v 0.96000 0.86000 -2.45000
v 0.96000 0.91000 -2.45000
v -0.96000 0.91000 -2.45000
v -0.98500 0.25000 -2.12000
v -1.02500 0.25000 -2.12000
v -1.02500 0.42000 -2.12000
v -0.98500 0.42000 -2.12000
v -0.98500 0.25000 2.04000
v -1.02500 0.25000 2.04000
v -1.02500 0.42000 2.04000
v -0.98500 0.42000 2.04000
v -0.99700 0.48000 -2.10000
v -1.01200 0.48000 -2.10000
v -1.01200 0.68000 -2.10000
v -0.99700 0.68000 -2.10000
v -0.99700 0.48000 1.80000
v -1.01200 0.48000 1.80000
v -1.01200 0.68000 1.80000
v -0.99700 0.68000 1.80000
v 0.98500 0.25000 -2.12000
v 1.02500 0.25000 -2.12000
v 1.02500 0.42000 -2.12000
v 0.98500 0.42000 -2.12000
v 0.98500 0.25000 2.04000
v 1.02500 0.25000 2.04000
v 1.02500 0.42000 2.04000
v 0.98500 0.42000 2.04000
v 0.99700 0.48000 -2.10000
v 1.01200 0.48000 -2.10000
v 1.01200 0.68000 -2.10000
v 0.99700 0.68000 -2.10000
v 0.99700 0.48000 1.80000
v 1.01200 0.48000 1.80000
v 1.01200 0.68000 1.80000
v 0.99700 0.68000 1.80000
v -0.18000 0.92500 0.92000
v 0.18000 0.92500 0.92000
v 0.18000 0.94500 0.92000
v -0.18000 0.94500 0.92000
v -0.18000 0.92500 2.30000
v 0.18000 0.92500 2.30000
v 0.18000 0.94500 2.30000
v -0.18000 0.94500 2.30000
v -0.16000 1.38500 -0.61000
v 0.16000 1.38500 -0.61000
v 0.16000 1.40000 -0.61000
v -0.16000 1.40000 -0.61000
v -0.16000 1.38500 0.49000
v 0.16000 1.38500 0.49000
v 0.16000 1.40000 0.49000
v -0.16000 1.40000 0.49000
v -1.14500 0.47000 -1.17000
v -0.89500 0.47000 -1.17000
v -1.14500 0.67000 -1.22359
v -0.89500 0.67000 -1.22359
v -1.14500 0.81641 -1.37000
v -0.89500 0.81641 -1.37000
v -1.14500 0.87000 -1.57000
v -0.89500 0.87000 -1.57000
v -1.14500 0.81641 -1.77000
v -0.89500 0.81641 -1.77000
v -1.14500 0.67000 -1.91641
v -0.89500 0.67000 -1.91641
v -1.14500 0.47000 -1.97000
v -0.89500 0.47000 -1.97000
v -1.14500 0.27000 -1.91641
v -0.89500 0.27000 -1.91641
v -1.14500 0.12359 -1.77000
v -0.89500 0.12359 -1.77000
v -1.14500 0.07000 -1.57000
v -0.89500 0.07000 -1.57000
v -1.14500 0.12359 -1.37000
v -0.89500 0.12359 -1.37000
v -1.14500 0.27000 -1.22359
v -0.89500 0.27000 -1.22359
v -1.14500 0.47000 -1.57000
v -0.89500 0.47000 -1.57000
v -1.16000 0.47000 -1.31500
v -1.14200 0.47000 -1.31500
v -1.16000 0.59750 -1.34916
v -1.14200 0.59750 -1.34916
v -1.16000 0.69084 -1.44250
v -1.14200 0.69084 -1.44250
v -1.16000 0.72500 -1.57000
v -1.14200 0.72500 -1.57000
v -1.16000 0.69084 -1.69750
v -1.14200 0.69084 -1.69750
v -1.16000 0.59750 -1.79084
v -1.14200 0.59750 -1.79084
v -1.16000 0.47000 -1.82500
v -1.14200 0.47000 -1.82500
v -1.16000 0.34250 -1.79084
v -1.14200 0.34250 -1.79084
v -1.16000 0.24916 -1.69750
v -1.14200 0.24916 -1.69750
v -1.16000 0.21500 -1.57000
v -1.14200 0.21500 -1.57000
v -1.16000 0.24916 -1.44250
v -1.14200 0.24916 -1.44250
v -1.16000 0.34250 -1.34916
v -1.14200 0.34250 -1.34916
v -1.16000 0.47000 -1.57000
v -1.14200 0.47000 -1.57000
v -1.17300 0.47000 -1.45000
v -1.15100 0.47000 -1.45000
v -1.17300 0.54053 -1.47292
v -1.15100 0.54053 -1.47292
v -1.17300 0.58413 -1.53292
v -1.15100 0.58413 -1.53292
v -1.17300 0.58413 -1.60708
v -1.15100 0.58413 -1.60708
v -1.17300 0.54053 -1.66708
v -1.15100 0.54053 -1.66708
v -1.17300 0.47000 -1.69000
v -1.15100 0.47000 -1.69000
v -1.17300 0.39947 -1.66708
v -1.15100 0.39947 -1.66708
v -1.17300 0.35587 -1.60708
v -1.15100 0.35587 -1.60708
v -1.17300 0.35587 -1.53292
v -1.15100 0.35587 -1.53292
v -1.17300 0.39947 -1.47292
v -1.15100 0.39947 -1.47292
v -1.17300 0.47000 -1.57000
v -1.15100 0.47000 -1.57000
v 0.89500 0.47000 -1.17000
v 1.14500 0.47000 -1.17000
v 0.89500 0.67000 -1.22359
v 1.14500 0.67000 -1.22359
v 0.89500 0.81641 -1.37000
v 1.14500 0.81641 -1.37000
v 0.89500 0.87000 -1.57000
v 1.14500 0.87000 -1.57000
v 0.89500 0.81641 -1.77000
v 1.14500 0.81641 -1.77000
v 0.89500 0.67000 -1.91641
v 1.14500 0.67000 -1.91641
v 0.89500 0.47000 -1.97000
v 1.14500 0.47000 -1.97000
v 0.89500 0.27000 -1.91641
v 1.14500 0.27000 -1.91641
v 0.89500 0.12359 -1.77000
v 1.14500 0.12359 -1.77000
v 0.89500 0.07000 -1.57000
v 1.14500 0.07000 -1.57000
v 0.89500 0.12359 -1.37000
v 1.14500 0.12359 -1.37000
v 0.89500 0.27000 -1.22359
v 1.14500 0.27000 -1.22359
v 0.89500 0.47000 -1.57000
v 1.14500 0.47000 -1.57000
v 1.14200 0.47000 -1.31500
v 1.16000 0.47000 -1.31500
v 1.14200 0.59750 -1.34916
v 1.16000 0.59750 -1.34916
v 1.14200 0.69084 -1.44250
v 1.16000 0.69084 -1.44250
v 1.14200 0.72500 -1.57000
v 1.16000 0.72500 -1.57000
v 1.14200 0.69084 -1.69750
v 1.16000 0.69084 -1.69750
v 1.14200 0.59750 -1.79084
v 1.16000 0.59750 -1.79084
v 1.14200 0.47000 -1.82500
v 1.16000 0.47000 -1.82500
v 1.14200 0.34250 -1.79084
v 1.16000 0.34250 -1.79084
v 1.14200 0.24916 -1.69750
v 1.16000 0.24916 -1.69750
v 1.14200 0.21500 -1.57000
v 1.16000 0.21500 -1.57000
v 1.14200 0.24916 -1.44250
v 1.16000 0.24916 -1.44250
v 1.14200 0.34250 -1.34916
v 1.16000 0.34250 -1.34916
v 1.14200 0.47000 -1.57000
v 1.16000 0.47000 -1.57000
v 1.15100 0.47000 -1.45000
v 1.17300 0.47000 -1.45000
v 1.15100 0.54053 -1.47292
v 1.17300 0.54053 -1.47292
v 1.15100 0.58413 -1.53292
v 1.17300 0.58413 -1.53292
v 1.15100 0.58413 -1.60708
v 1.17300 0.58413 -1.60708
v 1.15100 0.54053 -1.66708
v 1.17300 0.54053 -1.66708
v 1.15100 0.47000 -1.69000
v 1.17300 0.47000 -1.69000
v 1.15100 0.39947 -1.66708
v 1.17300 0.39947 -1.66708
v 1.15100 0.35587 -1.60708
v 1.17300 0.35587 -1.60708
v 1.15100 0.35587 -1.53292
v 1.17300 0.35587 -1.53292
v 1.15100 0.39947 -1.47292
v 1.17300 0.39947 -1.47292
v 1.15100 0.47000 -1.57000
v 1.17300 0.47000 -1.57000
v -1.14500 0.47000 1.97000
v -0.89500 0.47000 1.97000
v -1.14500 0.67000 1.91641
v -0.89500 0.67000 1.91641
v -1.14500 0.81641 1.77000
v -0.89500 0.81641 1.77000
v -1.14500 0.87000 1.57000
v -0.89500 0.87000 1.57000
v -1.14500 0.81641 1.37000
v -0.89500 0.81641 1.37000
v -1.14500 0.67000 1.22359
v -0.89500 0.67000 1.22359
v -1.14500 0.47000 1.17000
v -0.89500 0.47000 1.17000
v -1.14500 0.27000 1.22359
v -0.89500 0.27000 1.22359
v -1.14500 0.12359 1.37000
v -0.89500 0.12359 1.37000
v -1.14500 0.07000 1.57000
v -0.89500 0.07000 1.57000
v -1.14500 0.12359 1.77000
v -0.89500 0.12359 1.77000
v -1.14500 0.27000 1.91641
v -0.89500 0.27000 1.91641
v -1.14500 0.47000 1.57000
v -0.89500 0.47000 1.57000
v -1.16000 0.47000 1.82500
v -1.14200 0.47000 1.82500
v -1.16000 0.59750 1.79084
v -1.14200 0.59750 1.79084
v -1.16000 0.69084 1.69750
v -1.14200 0.69084 1.69750
v -1.16000 0.72500 1.57000
v -1.14200 0.72500 1.57000
v -1.16000 0.69084 1.44250
v -1.14200 0.69084 1.44250
v -1.16000 0.59750 1.34916
v -1.14200 0.59750 1.34916
v -1.16000 0.47000 1.31500
v -1.14200 0.47000 1.31500
v -1.16000 0.34250 1.34916
v -1.14200 0.34250 1.34916
v -1.16000 0.24916 1.44250
v -1.14200 0.24916 1.44250
v -1.16000 0.21500 1.57000
v -1.14200 0.21500 1.57000
v -1.16000 0.24916 1.69750
v -1.14200 0.24916 1.69750
v -1.16000 0.34250 1.79084
v -1.14200 0.34250 1.79084
v -1.16000 0.47000 1.57000
v -1.14200 0.47000 1.57000
v -1.17300 0.47000 1.69000
v -1.15100 0.47000 1.69000
v -1.17300 0.54053 1.66708
v -1.15100 0.54053 1.66708
v -1.17300 0.58413 1.60708
v -1.15100 0.58413 1.60708
v -1.17300 0.58413 1.53292
v -1.15100 0.58413 1.53292
v -1.17300 0.54053 1.47292
v -1.15100 0.54053 1.47292
v -1.17300 0.47000 1.45000
v -1.15100 0.47000 1.45000
v -1.17300 0.39947 1.47292
v -1.15100 0.39947 1.47292
v -1.17300 0.35587 1.53292
v -1.15100 0.35587 1.53292
v -1.17300 0.35587 1.60708
v -1.15100 0.35587 1.60708
v -1.17300 0.39947 1.66708
v -1.15100 0.39947 1.66708
v -1.17300 0.47000 1.57000
v -1.15100 0.47000 1.57000
v 0.89500 0.47000 1.97000
v 1.14500 0.47000 1.97000
v 0.89500 0.67000 1.91641
v 1.14500 0.67000 1.91641
v 0.89500 0.81641 1.77000
v 1.14500 0.81641 1.77000
v 0.89500 0.87000 1.57000
v 1.14500 0.87000 1.57000
v 0.89500 0.81641 1.37000
v 1.14500 0.81641 1.37000
v 0.89500 0.67000 1.22359
v 1.14500 0.67000 1.22359
v 0.89500 0.47000 1.17000
v 1.14500 0.47000 1.17000
v 0.89500 0.27000 1.22359
v 1.14500 0.27000 1.22359
v 0.89500 0.12359 1.37000
v 1.14500 0.12359 1.37000
v 0.89500 0.07000 1.57000
v 1.14500 0.07000 1.57000
v 0.89500 0.12359 1.77000
v 1.14500 0.12359 1.77000
v 0.89500 0.27000 1.91641
v 1.14500 0.27000 1.91641
v 0.89500 0.47000 1.57000
v 1.14500 0.47000 1.57000
v 1.14200 0.47000 1.82500
v 1.16000 0.47000 1.82500
v 1.14200 0.59750 1.79084
v 1.16000 0.59750 1.79084
v 1.14200 0.69084 1.69750
v 1.16000 0.69084 1.69750
v 1.14200 0.72500 1.57000
v 1.16000 0.72500 1.57000
v 1.14200 0.69084 1.44250
v 1.16000 0.69084 1.44250
v 1.14200 0.59750 1.34916
v 1.16000 0.59750 1.34916
v 1.14200 0.47000 1.31500
v 1.16000 0.47000 1.31500
v 1.14200 0.34250 1.34916
v 1.16000 0.34250 1.34916
v 1.14200 0.24916 1.44250
v 1.16000 0.24916 1.44250
v 1.14200 0.21500 1.57000
v 1.16000 0.21500 1.57000
v 1.14200 0.24916 1.69750
v 1.16000 0.24916 1.69750
v 1.14200 0.34250 1.79084
v 1.16000 0.34250 1.79084
v 1.14200 0.47000 1.57000
v 1.16000 0.47000 1.57000
v 1.15100 0.47000 1.69000
v 1.17300 0.47000 1.69000
v 1.15100 0.54053 1.66708
v 1.17300 0.54053 1.66708
v 1.15100 0.58413 1.60708
v 1.17300 0.58413 1.60708
v 1.15100 0.58413 1.53292
v 1.17300 0.58413 1.53292
v 1.15100 0.54053 1.47292
v 1.17300 0.54053 1.47292
v 1.15100 0.47000 1.45000
v 1.17300 0.47000 1.45000
v 1.15100 0.39947 1.47292
v 1.17300 0.39947 1.47292
v 1.15100 0.35587 1.53292
v 1.17300 0.35587 1.53292
v 1.15100 0.35587 1.60708
v 1.17300 0.35587 1.60708
v 1.15100 0.39947 1.66708
v 1.17300 0.39947 1.66708
v 1.15100 0.47000 1.57000
v 1.17300 0.47000 1.57000
v -0.99000 0.72000 -0.61000
v -1.01800 0.72000 -0.61000
v -1.01800 0.73200 -0.61000
v -0.99000 0.73200 -0.61000
v -0.99000 0.72000 0.40000
v -1.01800 0.72000 0.40000
v -1.01800 0.73200 0.40000
v -0.99000 0.73200 0.40000
v 0.99000 0.72000 -0.61000
v 1.01800 0.72000 -0.61000
v 1.01800 0.73200 -0.61000
v 0.99000 0.73200 -0.61000
v 0.99000 0.72000 0.40000
v 1.01800 0.72000 0.40000
v 1.01800 0.73200 0.40000
v 0.99000 0.73200 0.40000
v -1.01900 0.76000 0.04667
v -1.03500 0.76000 0.04667
v -1.03500 0.94000 0.04667
v -1.01900 0.94000 0.04667
v -1.01900 0.76000 0.09111
v -1.03500 0.76000 0.09111
v -1.03500 0.94000 0.09111
v -1.01900 0.94000 0.09111
v -1.01900 0.52000 0.04667
v -1.03500 0.52000 0.04667
v -1.03500 0.70000 0.04667
v -1.01900 0.70000 0.04667
v -1.01900 0.52000 0.09111
v -1.03500 0.52000 0.09111
v -1.03500 0.70000 0.09111
v -1.01900 0.70000 0.09111
v -1.01900 0.95000 0.19222
v -1.03500 0.95000 0.19222
v -1.03500 0.98500 0.19222
v -1.01900 0.98500 0.19222
v -1.01900 0.95000 0.38111
v -1.03500 0.95000 0.38111
v -1.03500 0.98500 0.38111
v -1.01900 0.98500 0.38111
v -1.01900 0.76000 0.38667
v -1.03500 0.76000 0.38667
v -1.03500 0.94000 0.38667
v -1.01900 0.94000 0.38667
v -1.01900 0.76000 0.43111
v -1.03500 0.76000 0.43111
v -1.03500 0.94000 0.43111
v -1.01900 0.94000 0.43111
v -1.01900 0.52000 0.38667
v -1.03500 0.52000 0.38667
v -1.03500 0.70000 0.38667
v -1.01900 0.70000 0.38667
v -1.01900 0.52000 0.43111
v -1.03500 0.52000 0.43111
v -1.03500 0.70000 0.43111
v -1.01900 0.70000 0.43111
v -1.01900 0.47500 0.19222
v -1.03500 0.47500 0.19222
v -1.03500 0.51000 0.19222
v -1.01900 0.51000 0.19222
v -1.01900 0.47500 0.38111
v -1.03500 0.47500 0.38111
v -1.03500 0.51000 0.38111
v -1.01900 0.51000 0.38111
v -1.01900 0.52000 -0.09111
v -1.03500 0.52000 -0.09111
v -1.03500 0.70000 -0.09111
v -1.01900 0.70000 -0.09111
v -1.01900 0.52000 -0.04667
v -1.03500 0.52000 -0.04667
v -1.03500 0.70000 -0.04667
v -1.01900 0.70000 -0.04667
v -1.01900 0.76000 -0.09111
v -1.03500 0.76000 -0.09111
v -1.03500 0.94000 -0.09111
v -1.01900 0.94000 -0.09111
v -1.01900 0.76000 -0.04667
v -1.03500 0.76000 -0.04667
v -1.03500 0.94000 -0.04667
v -1.01900 0.94000 -0.04667
v 1.01900 0.76000 0.04667
v 1.03500 0.76000 0.04667
v 1.03500 0.94000 0.04667
v 1.01900 0.94000 0.04667
v 1.01900 0.76000 0.09111
v 1.03500 0.76000 0.09111
v 1.03500 0.94000 0.09111
v 1.01900 0.94000 0.09111
v 1.01900 0.52000 0.04667
v 1.03500 0.52000 0.04667
v 1.03500 0.70000 0.04667
v 1.01900 0.70000 0.04667
v 1.01900 0.52000 0.09111
v 1.03500 0.52000 0.09111
v 1.03500 0.70000 0.09111
v 1.01900 0.70000 0.09111
v 1.01900 0.95000 0.19222
v 1.03500 0.95000 0.19222
v 1.03500 0.98500 0.19222
v 1.01900 0.98500 0.19222
v 1.01900 0.95000 0.38111
v 1.03500 0.95000 0.38111
v 1.03500 0.98500 0.38111
v 1.01900 0.98500 0.38111
v 1.01900 0.76000 0.38667
v 1.03500 0.76000 0.38667
v 1.03500 0.94000 0.38667
v 1.01900 0.94000 0.38667
v 1.01900 0.76000 0.43111
v 1.03500 0.76000 0.43111
v 1.03500 0.94000 0.43111
v 1.01900 0.94000 0.43111
v 1.01900 0.52000 0.38667
v 1.03500 0.52000 0.38667
v 1.03500 0.70000 0.38667
v 1.01900 0.70000 0.38667
v 1.01900 0.52000 0.43111
v 1.03500 0.52000 0.43111
v 1.03500 0.70000 0.43111
v 1.01900 0.70000 0.43111
v 1.01900 0.47500 0.19222
v 1.03500 0.47500 0.19222
v 1.03500 0.51000 0.19222
v 1.01900 0.51000 0.19222
v 1.01900 0.47500 0.38111
v 1.03500 0.47500 0.38111
v 1.03500 0.51000 0.38111
v 1.01900 0.51000 0.38111
v 1.01900 0.52000 -0.09111
v 1.03500 0.52000 -0.09111
v 1.03500 0.70000 -0.09111
v 1.01900 0.70000 -0.09111
v 1.01900 0.52000 -0.04667
v 1.03500 0.52000 -0.04667
v 1.03500 0.70000 -0.04667
v 1.01900 0.70000 -0.04667
v 1.01900 0.76000 -0.09111
v 1.03500 0.76000 -0.09111
v 1.03500 0.94000 -0.09111
v 1.01900 0.94000 -0.09111
v 1.01900 0.76000 -0.04667
v 1.03500 0.76000 -0.04667
v 1.03500 0.94000 -0.04667
v 1.01900 0.94000 -0.04667
v -0.08500 1.40200 0.04444
v -0.04500 1.40200 0.04444
v -0.04500 1.41400 0.04444
v -0.08500 1.41400 0.04444
v -0.08500 1.40200 0.24444
v -0.04500 1.40200 0.24444
v -0.04500 1.41400 0.24444
v -0.08500 1.41400 0.24444
v -0.08500 1.40200 -0.22222
v -0.04500 1.40200 -0.22222
v -0.04500 1.41400 -0.22222
v -0.08500 1.41400 -0.22222
v -0.08500 1.40200 -0.02222
v -0.04500 1.40200 -0.02222
v -0.04500 1.41400 -0.02222
v -0.08500 1.41400 -0.02222
v 0.02000 1.40200 0.25556
v 0.19000 1.40200 0.25556
v 0.19000 1.41400 0.25556
v 0.02000 1.41400 0.25556
v 0.02000 1.40200 0.29444
v 0.19000 1.40200 0.29444
v 0.19000 1.41400 0.29444
v 0.02000 1.41400 0.29444
v 0.19500 1.40200 0.04444
v 0.23500 1.40200 0.04444
v 0.23500 1.41400 0.04444
v 0.19500 1.41400 0.04444
v 0.19500 1.40200 0.24444
v 0.23500 1.40200 0.24444
v 0.23500 1.41400 0.24444
v 0.19500 1.41400 0.24444
v 0.19500 1.40200 -0.22222
v 0.23500 1.40200 -0.22222
v 0.23500 1.41400 -0.22222
v 0.19500 1.41400 -0.22222
v 0.19500 1.40200 -0.02222
v 0.23500 1.40200 -0.02222
v 0.23500 1.41400 -0.02222
v 0.19500 1.41400 -0.02222
v 0.02000 1.40200 -0.27222
v 0.19000 1.40200 -0.27222
v 0.19000 1.41400 -0.27222
v 0.02000 1.41400 -0.27222
v 0.02000 1.40200 -0.23333
v 0.19000 1.40200 -0.23333
v 0.19000 1.41400 -0.23333
v 0.02000 1.41400 -0.23333
v -0.23500 1.40200 -0.22222
v -0.19500 1.40200 -0.22222
v -0.19500 1.41400 -0.22222
v -0.23500 1.41400 -0.22222
v -0.23500 1.40200 -0.02222
v -0.19500 1.40200 -0.02222
v -0.19500 1.41400 -0.02222
v -0.23500 1.41400 -0.02222
v -0.23500 1.40200 0.04444
v -0.19500 1.40200 0.04444
v -0.19500 1.41400 0.04444
v -0.23500 1.41400 0.04444
v -0.23500 1.40200 0.24444
v -0.19500 1.40200 0.24444
v -0.19500 1.41400 0.24444
v -0.23500 1.41400 0.24444
v -1.04000 0.38000 -1.04000
v -0.99000 0.38000 -1.04000
v -0.99000 0.46000 -1.04000
v -1.04000 0.46000 -1.04000
v -1.04000 0.38000 -0.35000
v -0.99000 0.38000 -0.35000
v -0.99000 0.46000 -0.35000
v -1.04000 0.46000 -0.35000
v 0.99000 0.38000 -1.04000
v 1.04000 0.38000 -1.04000
v 1.04000 0.46000 -1.04000
v 0.99000 0.46000 -1.04000
v 0.99000 0.38000 -0.35000
v 1.04000 0.38000 -0.35000
v 1.04000 0.46000 -0.35000
v 0.99000 0.46000 -0.35000
usemtl paint
f 1 2 8
f 1 8 7
f 2 3 9
f 2 9 8
f 3 6 12
f 3 12 9
f 6 5 11
f 6 11 12
f 5 4 10
f 5 10 11
f 4 1 7
f 4 7 10
f 7 8 14
f 7 14 13
f 8 9 15
f 8 15 14
f 9 12 18
f 9 18 15
f 12 11 17
f 12 17 18
f 11 10 16
f 11 16 17
f 10 7 13
f 10 13 16
f 13 14 20
f 13 20 19
f 14 15 21
f 14 21 20
f 15 18 24
f 15 24 21
f 18 17 23
f 18 23 24
f 17 16 22
f 17 22 23
f 16 13 19
f 16 19 22
f 19 20 26
f 19 26 25
f 20 21 27
f 20 27 26
f 21 24 30
f 21 30 27
f 24 23 29
f 24 29 30
f 23 22 28
f 23 28 29
f 22 19 25
f 22 25 28
f 25 26 32
f 25 32 31
f 26 27 33
f 26 33 32
f 27 30 36
f 27 36 33
f 30 29 35
f 30 35 36
f 29 28 34
f 29 34 35
f 28 25 31
f 28 31 34
f 31 32 38
f 31 38 37
f 32 33 39
f 32 39 38
f 33 36 42
f 33 42 39
f 36 35 41
f 36 41 42
f 35 34 40
f 35 40 41
f 34 31 37
f 34 37 40
f 1 4 5
f 1 5 6
f 1 6 3
f 1 3 2
f 37 38 39
f 37 39 42
f 37 42 41
f 37 41 40
f 43 44 50
f 43 50 49
f 44 45 51
f 44 51 50
f 45 48 54
f 45 54 51
f 48 47 53
f 48 53 54
f 47 46 52
f 47 52 53
f 46 43 49
f 46 49 52
f 49 50 56
f 49 56 55
f 50 51 57
f 50 57 56
f 51 54 60
f 51 60 57
f 54 53 59
f 54 59 60
f 53 52 58
f 53 58 59
f 52 49 55
f 52 55 58
f 55 56 62
f 55 62 61
f 56 57 63
f 56 63 62
f 57 60 66
f 57 66 63
f 60 59 65
f 60 65 66
f 59 58 64
f 59 64 65
f 58 55 61
f 58 61 64
f 43 46 47
f 43 47 48
f 43 48 45
f 43 45 44
f 61 62 63
f 61 63 66
f 61 66 65
f 61 65 64
usemtl glass
f 67 70 69
f 67 69 68
f 71 72 73
f 71 73 74
f 67 68 72
f 67 72 71
f 68 69 73
f 68 73 72
f 69 70 74
f 69 74 73
f 70 67 71
f 70 71 74
f 75 78 77
f 75 77 76
f 79 80 81
f 79 81 82
f 75 76 80
f 75 80 79
f 76 77 81
f 76 81 80
f 77 78 82
f 77 82 81
f 78 75 79
f 78 79 82
f 83 86 85
f 83 85 84
f 87 88 89
f 87 89 90
f 83 84 88
f 83 88 87
f 84 85 89
f 84 89 88
f 85 86 90
f 85 90 89
f 86 83 87
f 86 87 90
f 91 94 93
f 91 93 92
f 95 96 97
f 95 97 98
f 91 92 96
f 91 96 95
f 92 93 97
f 92 97 96
f 93 94 98
f 93 98 97
f 94 91 95
f 94 95 98
f 99 102 101
f 99 101 100
f 103 104 105
f 103 105 106
f 99 100 104
f 99 104 103
f 100 101 105
f 100 105 104
f 101 102 106
f 101 106 105
f 102 99 103
f 102 103 106
f 107 110 109
f 107 109 108
f 111 112 113
f 111 113 114
f 107 108 112
f 107 112 111
f 108 109 113
f 108 113 112
f 109 110 114
f 109 114 113
f 110 107 111
f 110 111 114
usemtl number
f 115 118 117
f 115 117 116
f 119 120 121
f 119 121 122
f 115 116 120
f 115 120 119
f 116 117 121
f 116 121 120
f 117 118 122
f 117 122 121
f 118 115 119
f 118 119 122
f 123 126 125
f 123 125 124
f 127 128 129
f 127 129 130
f 123 124 128
f 123 128 127
f 124 125 129
f 124 129 128
f 125 126 130
f 125 130 129
f 126 123 127
f 126 127 130
f 131 134 133
f 131 133 132
f 135 136 137
f 135 137 138
f 131 132 136
f 131 136 135
f 132 133 137
f 132 137 136
f 133 134 138
f 133 138 137
f 134 131 135
f 134 135 138
usemtl grille
f 139 142 141
f 139 141 140
f 143 144 145
f 143 145 146
f 139 140 144
f 139 144 143
f 140 141 145
f 140 145 144
f 141 142 146
f 141 146 145
f 142 139 143
f 142 143 146
f 147 150 149
f 147 149 148
f 151 152 153
f 151 153 154
f 147 148 152
f 147 152 151
f 148 149 153
f 148 153 152
f 149 150 154
f 149 154 153
f 150 147 151
f 150 151 154
usemtl light
f 155 158 157
f 155 157 156
f 159 160 161
f 159 161 162
f 155 156 160
f 155 160 159
f 156 157 161
f 156 161 160
f 157 158 162
f 157 162 161
f 158 155 159
f 158 159 162
f 163 166 165
f 163 165 164
f 167 168 169
f 167 169 170
f 163 164 168
f 163 168 167
f 164 165 169
f 164 169 168
f 165 166 170
f 165 170 169
f 166 163 167
f 166 167 170
usemtl accent
f 171 174 173
f 171 173 172
f 175 176 177
f 175 177 178
f 171 172 176
f 171 176 175
f 172 173 177
f 172 177 176
f 173 174 178
f 173 178 177
f 174 171 175
f 174 175 178
f 179 182 181
f 179 181 180
f 183 184 185
f 183 185 186
f 179 180 184
f 179 184 183
f 180 181 185
f 180 185 184
f 181 182 186
f 181 186 185
f 182 179 183
f 182 183 186
usemtl paint
f 187 190 189
f 187 189 188
f 191 192 193
f 191 193 194
f 187 188 192
f 187 192 191
f 188 189 193
f 188 193 192
f 189 190 194
f 189 194 193
f 190 187 191
f 190 191 194
usemtl grille
f 195 198 197
f 195 197 196
f 199 200 201
f 199 201 202
f 195 196 200
f 195 200 199
f 196 197 201
f 196 201 200
f 197 198 202
f 197 202 201
f 198 195 199
f 198 199 202
usemtl accent
f 203 206 205
f 203 205 204
f 207 208 209
f 207 209 210
f 203 204 208
f 203 208 207
f 204 205 209
f 204 209 208
f 205 206 210
f 205 210 209
f 206 203 207
f 206 207 210
usemtl grille
f 211 214 213
f 211 213 212
f 215 216 217
f 215 217 218
f 211 212 216
f 211 216 215
f 212 213 217
f 212 217 216
f 213 214 218
f 213 218 217
f 214 211 215
f 214 215 218
usemtl accent
f 219 222 221
f 219 221 220
f 223 224 225
f 223 225 226
f 219 220 224
f 219 224 223
f 220 221 225
f 220 225 224
f 221 222 226
f 221 226 225
f 222 219 223
f 222 223 226
f 227 230 229
f 227 229 228
f 231 232 233
f 231 233 234
f 227 228 232
f 227 232 231
f 228 229 233
f 228 233 232
f 229 230 234
f 229 234 233
f 230 227 231
f 230 231 234
f 235 238 237
f 235 237 236
f 239 240 241
f 239 241 242
f 235 236 240
f 235 240 239
f 236 237 241
f 236 241 240
f 237 238 242
f 237 242 241
f 238 235 239
f 238 239 242
usemtl tire
f 243 245 246
f 243 246 244
f 245 247 248
f 245 248 246
f 247 249 250
f 247 250 248
f 249 251 252
f 249 252 250
f 251 253 254
f 251 254 252
f 253 255 256
f 253 256 254
f 255 257 258
f 255 258 256
f 257 259 260
f 257 260 258
f 259 261 262
f 259 262 260
f 261 263 264
f 261 264 262
f 263 265 266
f 263 266 264
f 265 243 244
f 265 244 266
f 267 245 243
f 268 244 246
f 267 247 245
f 268 246 248
f 267 249 247
f 268 248 250
f 267 251 249
f 268 250 252
f 267 253 251
f 268 252 254
f 267 255 253
f 268 254 256
f 267 257 255
f 268 256 258
f 267 259 257
f 268 258 260
f 267 261 259
f 268 260 262
f 267 263 261
f 268 262 264
f 267 265 263
f 268 264 266
f 267 243 265
f 268 266 244
usemtl wheel
f 269 271 272
f 269 272 270
f 271 273 274
f 271 274 272
f 273 275 276
f 273 276 274
f 275 277 278
f 275 278 276
f 277 279 280
f 277 280 278
f 279 281 282
f 279 282 280
f 281 283 284
f 281 284 282
f 283 285 286
f 283 286 284
f 285 287 288
f 285 288 286
f 287 289 290
f 287 290 288
f 289 291 292
f 289 292 290
f 291 269 270
f 291 270 292
f 293 271 269
f 294 270 272
f 293 273 271
f 294 272 274
f 293 275 273
f 294 274 276
f 293 277 275
f 294 276 278
f 293 279 277
f 294 278 280
f 293 281 279
f 294 280 282
f 293 283 281
f 294 282 284
f 293 285 283
f 294 284 286
f 293 287 285
f 294 286 288
f 293 289 287
f 294 288 290
f 293 291 289
f 294 290 292
f 293 269 291
f 294 292 270
usemtl brake
f 295 297 298
f 295 298 296
f 297 299 300
f 297 300 298
f 299 301 302
f 299 302 300
f 301 303 304
f 301 304 302
f 303 305 306
f 303 306 304
f 305 307 308
f 305 308 306
f 307 309 310
f 307 310 308
f 309 311 312
f 309 312 310
f 311 313 314
f 311 314 312
f 313 295 296
f 313 296 314
f 315 297 295
f 316 296 298
f 315 299 297
f 316 298 300
f 315 301 299
f 316 300 302
f 315 303 301
f 316 302 304
f 315 305 303
f 316 304 306
f 315 307 305
f 316 306 308
f 315 309 307
f 316 308 310
f 315 311 309
f 316 310 312
f 315 313 311
f 316 312 314
f 315 295 313
f 316 314 296
usemtl tire
f 317 319 320
f 317 320 318
f 319 321 322
f 319 322 320
f 321 323 324
f 321 324 322
f 323 325 326
f 323 326 324
f 325 327 328
f 325 328 326
f 327 329 330
f 327 330 328
f 329 331 332
f 329 332 330
f 331 333 334
f 331 334 332
f 333 335 336
f 333 336 334
f 335 337 338
f 335 338 336
f 337 339 340
f 337 340 338
f 339 317 318
f 339 318 340
f 341 319 317
f 342 318 320
f 341 321 319
f 342 320 322
f 341 323 321
f 342 322 324
f 341 325 323
f 342 324 326
f 341 327 325
f 342 326 328
f 341 329 327
f 342 328 330
f 341 331 329
f 342 330 332
f 341 333 331
f 342 332 334
f 341 335 333
f 342 334 336
f 341 337 335
f 342 336 338
f 341 339 337
f 342 338 340
f 341 317 339
f 342 340 318
usemtl wheel
f 343 345 346
f 343 346 344
f 345 347 348
f 345 348 346
f 347 349 350
f 347 350 348
f 349 351 352
f 349 352 350
f 351 353 354
f 351 354 352
f 353 355 356
f 353 356 354
f 355 357 358
f 355 358 356
f 357 359 360
f 357 360 358
f 359 361 362
f 359 362 360
f 361 363 364
f 361 364 362
f 363 365 366
f 363 366 364
f 365 343 344
f 365 344 366
f 367 345 343
f 368 344 346
f 367 347 345
f 368 346 348
f 367 349 347
f 368 348 350
f 367 351 349
f 368 350 352
f 367 353 351
f 368 352 354
f 367 355 353
f 368 354 356
f 367 357 355
f 368 356 358
f 367 359 357
f 368 358 360
f 367 361 359
f 368 360 362
f 367 363 361
f 368 362 364
f 367 365 363
f 368 364 366
f 367 343 365
f 368 366 344
usemtl brake
f 369 371 372
f 369 372 370
f 371 373 374
f 371 374 372
f 373 375 376
f 373 376 374
f 375 377 378
f 375 378 376
f 377 379 380
f 377 380 378
f 379 381 382
f 379 382 380
f 381 383 384
f 381 384 382
f 383 385 386
f 383 386 384
f 385 387 388
f 385 388 386
f 387 369 370
f 387 370 388
f 389 371 369
f 390 370 372
f 389 373 371
f 390 372 374
f 389 375 373
f 390 374 376
f 389 377 375
f 390 376 378
f 389 379 377
f 390 378 380
f 389 381 379
f 390 380 382
f 389 383 381
f 390 382 384
f 389 385 383
f 390 384 386
f 389 387 385
f 390 386 388
f 389 369 387
f 390 388 370
usemtl tire
f 391 393 394
f 391 394 392
f 393 395 396
f 393 396 394
f 395 397 398
f 395 398 396
f 397 399 400
f 397 400 398
f 399 401 402
f 399 402 400
f 401 403 404
f 401 404 402
f 403 405 406
f 403 406 404
f 405 407 408
f 405 408 406
f 407 409 410
f 407 410 408
f 409 411 412
f 409 412 410
f 411 413 414
f 411 414 412
f 413 391 392
f 413 392 414
f 415 393 391
f 416 392 394
f 415 395 393
f 416 394 396
f 415 397 395
f 416 396 398
f 415 399 397
f 416 398 400
f 415 401 399
f 416 400 402
f 415 403 401
f 416 402 404
f 415 405 403
f 416 404 406
f 415 407 405
f 416 406 408
f 415 409 407
f 416 408 410
f 415 411 409
f 416 410 412
f 415 413 411
f 416 412 414
f 415 391 413
f 416 414 392
usemtl wheel
f 417 419 420
f 417 420 418
f 419 421 422
f 419 422 420
f 421 423 424
f 421 424 422
f 423 425 426
f 423 426 424
f 425 427 428
f 425 428 426
f 427 429 430
f 427 430 428
f 429 431 432
f 429 432 430
f 431 433 434
f 431 434 432
f 433 435 436
f 433 436 434
f 435 437 438
f 435 438 436
f 437 439 440
f 437 440 438
f 439 417 418
f 439 418 440
f 441 419 417
f 442 418 420
f 441 421 419
f 442 420 422
f 441 423 421
f 442 422 424
f 441 425 423
f 442 424 426
f 441 427 425
f 442 426 428
f 441 429 427
f 442 428 430
f 441 431 429
f 442 430 432
f 441 433 431
f 442 432 434
f 441 435 433
f 442 434 436
f 441 437 435
f 442 436 438
f 441 439 437
f 442 438 440
f 441 417 439
f 442 440 418
usemtl brake
f 443 445 446
f 443 446 444
f 445 447 448
f 445 448 446
f 447 449 450
f 447 450 448
f 449 451 452
f 449 452 450
f 451 453 454
f 451 454 452
f 453 455 456
f 453 456 454
f 455 457 458
f 455 458 456
f 457 459 460
f 457 460 458
f 459 461 462
f 459 462 460
f 461 443 444
f 461 444 462
f 463 445 443
f 464 444 446
f 463 447 445
f 464 446 448
f 463 449 447
f 464 448 450
f 463 451 449
f 464 450 452
f 463 453 451
f 464 452 454
f 463 455 453
f 464 454 456
f 463 457 455
f 464 456 458
f 463 459 457
f 464 458 460
f 463 461 459
f 464 460 462
f 463 443 461
f 464 462 444
usemtl tire
f 465 467 468
f 465 468 466
f 467 469 470
f 467 470 468
f 469 471 472
f 469 472 470
f 471 473 474
f 471 474 472
f 473 475 476
f 473 476 474
f 475 477 478
f 475 478 476
f 477 479 480
f 477 480 478
f 479 481 482
f 479 482 480
f 481 483 484
f 481 484 482
f 483 485 486
f 483 486 484
f 485 487 488
f 485 488 486
f 487 465 466
f 487 466 488
f 489 467 465
f 490 466 468
f 489 469 467
f 490 468 470
f 489 471 469
f 490 470 472
f 489 473 471
f 490 472 474
f 489 475 473
f 490 474 476
f 489 477 475
f 490 476 478
f 489 479 477
f 490 478 480
f 489 481 479
f 490 480 482
f 489 483 481
f 490 482 484
f 489 485 483
f 490 484 486
f 489 487 485
f 490 486 488
f 489 465 487
f 490 488 466
usemtl wheel
f 491 493 494
f 491 494 492
f 493 495 496
f 493 496 494
f 495 497 498
f 495 498 496
f 497 499 500
f 497 500 498
f 499 501 502
f 499 502 500
f 501 503 504
f 501 504 502
f 503 505 506
f 503 506 504
f 505 507 508
f 505 508 506
f 507 509 510
f 507 510 508
f 509 511 512
f 509 512 510
f 511 513 514
f 511 514 512
f 513 491 492
f 513 492 514
f 515 493 491
f 516 492 494
f 515 495 493
f 516 494 496
f 515 497 495
f 516 496 498
f 515 499 497
f 516 498 500
f 515 501 499
f 516 500 502
f 515 503 501
f 516 502 504
f 515 505 503
f 516 504 506
f 515 507 505
f 516 506 508
f 515 509 507
f 516 508 510
f 515 511 509
f 516 510 512
f 515 513 511
f 516 512 514
f 515 491 513
f 516 514 492
usemtl brake
f 517 519 520
f 517 520 518
f 519 521 522
f 519 522 520
f 521 523 524
f 521 524 522
f 523 525 526
f 523 526 524
f 525 527 528
f 525 528 526
f 527 529 530
f 527 530 528
f 529 531 532
f 529 532 530
f 531 533 534
f 531 534 532
f 533 535 536
f 533 536 534
f 535 517 518
f 535 518 536
f 537 519 517
f 538 518 520
f 537 521 519
f 538 520 522
f 537 523 521
f 538 522 524
f 537 525 523
f 538 524 526
f 537 527 525
f 538 526 528
f 537 529 527
f 538 528 530
f 537 531 529
f 538 530 532
f 537 533 531
f 538 532 534
f 537 535 533
f 538 534 536
f 537 517 535
f 538 536 518
usemtl number
f 539 542 541
f 539 541 540
f 543 544 545
f 543 545 546
f 539 540 544
f 539 544 543
f 540 541 545
f 540 545 544
f 541 542 546
f 541 546 545
f 542 539 543
f 542 543 546
f 547 550 549
f 547 549 548
f 551 552 553
f 551 553 554
f 547 548 552
f 547 552 551
f 548 549 553
f 548 553 552
f 549 550 554
f 549 554 553
f 550 547 551
f 550 551 554
usemtl paint
f 555 558 557
f 555 557 556
f 559 560 561
f 559 561 562
f 555 556 560
f 555 560 559
f 556 557 561
f 556 561 560
f 557 558 562
f 557 562 561
f 558 555 559
f 558 559 562
f 563 566 565
f 563 565 564
f 567 568 569
f 567 569 570
f 563 564 568
f 563 568 567
f 564 565 569
f 564 569 568
f 565 566 570
f 565 570 569
f 566 563 567
f 566 567 570
f 571 574 573
f 571 573 572
f 575 576 577
f 575 577 578
f 571 572 576
f 571 576 575
f 572 573 577
f 572 577 576
f 573 574 578
f 573 578 577
f 574 571 575
f 574 575 578
f 579 582 581
f 579 581 580
f 583 584 585
f 583 585 586
f 579 580 584
f 579 584 583
f 580 581 585
f 580 585 584
f 581 582 586
f 581 586 585
f 582 579 583
f 582 583 586
f 587 590 589
f 587 589 588
f 591 592 593
f 591 593 594
f 587 588 592
f 587 592 591
f 588 589 593
f 588 593 592
f 589 590 594
f 589 594 593
f 590 587 591
f 590 591 594
f 595 598 597
f 595 597 596
f 599 600 601
f 599 601 602
f 595 596 600
f 595 600 599
f 596 597 601
f 596 601 600
f 597 598 602
f 597 602 601
f 598 595 599
f 598 599 602
f 603 606 605
f 603 605 604
f 607 608 609
f 607 609 610
f 603 604 608
f 603 608 607
f 604 605 609
f 604 609 608
f 605 606 610
f 605 610 609
f 606 603 607
f 606 607 610
f 611 614 613
f 611 613 612
f 615 616 617
f 615 617 618
f 611 612 616
f 611 616 615
f 612 613 617
f 612 617 616
f 613 614 618
f 613 618 617
f 614 611 615
f 614 615 618
f 619 622 621
f 619 621 620
f 623 624 625
f 623 625 626
f 619 620 624
f 619 624 623
f 620 621 625
f 620 625 624
f 621 622 626
f 621 626 625
f 622 619 623
f 622 623 626
f 627 630 629
f 627 629 628
f 631 632 633
f 631 633 634
f 627 628 632
f 627 632 631
f 628 629 633
f 628 633 632
f 629 630 634
f 629 634 633
f 630 627 631
f 630 631 634
f 635 638 637
f 635 637 636
f 639 640 641
f 639 641 642
f 635 636 640
f 635 640 639
f 636 637 641
f 636 641 640
f 637 638 642
f 637 642 641
f 638 635 639
f 638 639 642
f 643 646 645
f 643 645 644
f 647 648 649
f 647 649 650
f 643 644 648
f 643 648 647
f 644 645 649
f 644 649 648
f 645 646 650
f 645 650 649
f 646 643 647
f 646 647 650
f 651 654 653
f 651 653 652
f 655 656 657
f 655 657 658
f 651 652 656
f 651 656 655
f 652 653 657
f 652 657 656
f 653 654 658
f 653 658 657
f 654 651 655
f 654 655 658
f 659 662 661
f 659 661 660
f 663 664 665
f 663 665 666
f 659 660 664
f 659 664 663
f 660 661 665
f 660 665 664
f 661 662 666
f 661 666 665
f 662 659 663
f 662 663 666
f 667 670 669
f 667 669 668
f 671 672 673
f 671 673 674
f 667 668 672
f 667 672 671
f 668 669 673
f 668 673 672
f 669 670 674
f 669 674 673
f 670 667 671
f 670 671 674
f 675 678 677
f 675 677 676
f 679 680 681
f 679 681 682
f 675 676 680
f 675 680 679
f 676 677 681
f 676 681 680
f 677 678 682
f 677 682 681
f 678 675 679
f 678 679 682
usemtl number
f 683 686 685
f 683 685 684
f 687 688 689
f 687 689 690
f 683 684 688
f 683 688 687
f 684 685 689
f 684 689 688
f 685 686 690
f 685 690 689
f 686 683 687
f 686 687 690
f 691 694 693
f 691 693 692
f 695 696 697
f 695 697 698
f 691 692 696
f 691 696 695
f 692 693 697
f 692 697 696
f 693 694 698
f 693 698 697
f 694 691 695
f 694 695 698
f 699 702 701
f 699 701 700
f 703 704 705
f 703 705 706
f 699 700 704
f 699 704 703
f 700 701 705
f 700 705 704
f 701 702 706
f 701 706 705
f 702 699 703
f 702 703 706
f 707 710 709
f 707 709 708
f 711 712 713
f 711 713 714
f 707 708 712
f 707 712 711
f 708 709 713
f 708 713 712
f 709 710 714
f 709 714 713
f 710 707 711
f 710 711 714
f 715 718 717
f 715 717 716
f 719 720 721
f 719 721 722
f 715 716 720
f 715 720 719
f 716 717 721
f 716 721 720
f 717 718 722
f 717 722 721
f 718 715 719
f 718 719 722
f 723 726 725
f 723 725 724
f 727 728 729
f 727 729 730
f 723 724 728
f 723 728 727
f 724 725 729
f 724 729 728
f 725 726 730
f 725 730 729
f 726 723 727
f 726 727 730
f 731 734 733
f 731 733 732
f 735 736 737
f 735 737 738
f 731 732 736
f 731 736 735
f 732 733 737
f 732 737 736
f 733 734 738
f 733 738 737
f 734 731 735
f 734 735 738
f 739 742 741
f 739 741 740
f 743 744 745
f 743 745 746
f 739 740 744
f 739 744 743
f 740 741 745
f 740 745 744
f 741 742 746
f 741 746 745
f 742 739 743
f 742 743 746
usemtl wheel
f 747 750 749
f 747 749 748
f 751 752 753
f 751 753 754
f 747 748 752
f 747 752 751
f 748 749 753
f 748 753 752
f 749 750 754
f 749 754 753
f 750 747 751
f 750 751 754
f 755 758 757
f 755 757 756
f 759 760 761
f 759 761 762
f 755 756 760
f 755 760 759
f 756 757 761
f 756 761 760
f 757 758 762
f 757 762 761
f 758 755 759
f 758 759 762
